<svg xmlns="http://www.w3.org/2000/svg" viewBox="0 0 720 380" font-family="-apple-system,Segoe UI,Roboto,Helvetica,Arial,sans-serif">
  <rect width="720" height="380" rx="14" fill="#fbfdff"/>
  <rect x="1" y="1" width="718" height="378" rx="14" fill="none" stroke="#e2e8f0"/>
  <text x="360" y="32" text-anchor="middle" font-size="19" font-weight="700" fill="#1b2a4a">L'ACP : projeter sur la direction qui garde le plus d'étalement</text>
  <text x="360" y="53" text-anchor="middle" font-size="12.5" fill="#64748b">Points noirs : les données (2D). On les projette sur une droite (leur ombre). Quelle droite garde le mieux leur dispersion ?</text>

  <rect x="26" y="74" width="334" height="244" rx="9" fill="#ffffff" stroke="#e2e8f0"/>
  <line x1="77" y1="253" x2="293" y2="147" stroke="#94a3b8" stroke-width="2"/>
  <line x1="94" y1="229" x2="100" y2="242" stroke="#cbd5e1" stroke-width="1" stroke-dasharray="3 3"/>
  <circle cx="100" cy="242" r="4" fill="#16a34a"/>
  <line x1="124" y1="240" x2="120" y2="232" stroke="#cbd5e1" stroke-width="1" stroke-dasharray="3 3"/>
  <circle cx="120" cy="232" r="4" fill="#16a34a"/>
  <line x1="137" y1="217" x2="140" y2="222" stroke="#cbd5e1" stroke-width="1" stroke-dasharray="3 3"/>
  <circle cx="140" cy="222" r="4" fill="#16a34a"/>
  <line x1="161" y1="224" x2="156" y2="214" stroke="#cbd5e1" stroke-width="1" stroke-dasharray="3 3"/>
  <circle cx="156" cy="214" r="4" fill="#16a34a"/>
  <line x1="170" y1="197" x2="174" y2="205" stroke="#cbd5e1" stroke-width="1" stroke-dasharray="3 3"/>
  <circle cx="174" cy="205" r="4" fill="#16a34a"/>
  <line x1="195" y1="203" x2="192" y2="196" stroke="#cbd5e1" stroke-width="1" stroke-dasharray="3 3"/>
  <circle cx="192" cy="196" r="4" fill="#16a34a"/>
  <line x1="203" y1="179" x2="207" y2="189" stroke="#cbd5e1" stroke-width="1" stroke-dasharray="3 3"/>
  <circle cx="207" cy="189" r="4" fill="#16a34a"/>
  <line x1="228" y1="185" x2="225" y2="180" stroke="#cbd5e1" stroke-width="1" stroke-dasharray="3 3"/>
  <circle cx="225" cy="180" r="4" fill="#16a34a"/>
  <line x1="252" y1="182" x2="246" y2="170" stroke="#cbd5e1" stroke-width="1" stroke-dasharray="3 3"/>
  <circle cx="246" cy="170" r="4" fill="#16a34a"/>
  <line x1="261" y1="155" x2="264" y2="161" stroke="#cbd5e1" stroke-width="1" stroke-dasharray="3 3"/>
  <circle cx="264" cy="161" r="4" fill="#16a34a"/>
  <circle cx="94" cy="229" r="4.5" fill="#1b2a4a"/>
  <circle cx="124" cy="240" r="4.5" fill="#1b2a4a"/>
  <circle cx="137" cy="217" r="4.5" fill="#1b2a4a"/>
  <circle cx="161" cy="224" r="4.5" fill="#1b2a4a"/>
  <circle cx="170" cy="197" r="4.5" fill="#1b2a4a"/>
  <circle cx="195" cy="203" r="4.5" fill="#1b2a4a"/>
  <circle cx="203" cy="179" r="4.5" fill="#1b2a4a"/>
  <circle cx="228" cy="185" r="4.5" fill="#1b2a4a"/>
  <circle cx="252" cy="182" r="4.5" fill="#1b2a4a"/>
  <circle cx="261" cy="155" r="4.5" fill="#1b2a4a"/>
  <text x="185" y="100" text-anchor="middle" font-size="13.5" font-weight="700" fill="#16a34a">Direction principale</text>
  <text x="185" y="306" text-anchor="middle" font-size="11" fill="#64748b">l'étalement est conservé (on garde l'info)</text>
  <rect x="372" y="74" width="320" height="244" rx="9" fill="#ffffff" stroke="#e2e8f0"/>
  <line x1="477" y1="92" x2="583" y2="308" stroke="#94a3b8" stroke-width="2"/>
  <line x1="439" y1="229" x2="524" y2="187" stroke="#cbd5e1" stroke-width="1" stroke-dasharray="3 3"/>
  <circle cx="524" cy="187" r="4" fill="#dc2626"/>
  <line x1="469" y1="240" x2="534" y2="208" stroke="#cbd5e1" stroke-width="1" stroke-dasharray="3 3"/>
  <circle cx="534" cy="208" r="4" fill="#dc2626"/>
  <line x1="482" y1="217" x2="527" y2="195" stroke="#cbd5e1" stroke-width="1" stroke-dasharray="3 3"/>
  <circle cx="527" cy="195" r="4" fill="#dc2626"/>
  <line x1="506" y1="224" x2="535" y2="210" stroke="#cbd5e1" stroke-width="1" stroke-dasharray="3 3"/>
  <circle cx="535" cy="210" r="4" fill="#dc2626"/>
  <line x1="515" y1="197" x2="526" y2="192" stroke="#cbd5e1" stroke-width="1" stroke-dasharray="3 3"/>
  <circle cx="526" cy="192" r="4" fill="#dc2626"/>
  <line x1="540" y1="203" x2="533" y2="206" stroke="#cbd5e1" stroke-width="1" stroke-dasharray="3 3"/>
  <circle cx="533" cy="206" r="4" fill="#dc2626"/>
  <line x1="548" y1="179" x2="525" y2="190" stroke="#cbd5e1" stroke-width="1" stroke-dasharray="3 3"/>
  <circle cx="525" cy="190" r="4" fill="#dc2626"/>
  <line x1="573" y1="185" x2="532" y2="204" stroke="#cbd5e1" stroke-width="1" stroke-dasharray="3 3"/>
  <circle cx="532" cy="204" r="4" fill="#dc2626"/>
  <line x1="597" y1="182" x2="536" y2="212" stroke="#cbd5e1" stroke-width="1" stroke-dasharray="3 3"/>
  <circle cx="536" cy="212" r="4" fill="#dc2626"/>
  <line x1="606" y1="155" x2="527" y2="194" stroke="#cbd5e1" stroke-width="1" stroke-dasharray="3 3"/>
  <circle cx="527" cy="194" r="4" fill="#dc2626"/>
  <circle cx="439" cy="229" r="4.5" fill="#1b2a4a"/>
  <circle cx="469" cy="240" r="4.5" fill="#1b2a4a"/>
  <circle cx="482" cy="217" r="4.5" fill="#1b2a4a"/>
  <circle cx="506" cy="224" r="4.5" fill="#1b2a4a"/>
  <circle cx="515" cy="197" r="4.5" fill="#1b2a4a"/>
  <circle cx="540" cy="203" r="4.5" fill="#1b2a4a"/>
  <circle cx="548" cy="179" r="4.5" fill="#1b2a4a"/>
  <circle cx="573" cy="185" r="4.5" fill="#1b2a4a"/>
  <circle cx="597" cy="182" r="4.5" fill="#1b2a4a"/>
  <circle cx="606" cy="155" r="4.5" fill="#1b2a4a"/>
  <text x="530" y="100" text-anchor="middle" font-size="13.5" font-weight="700" fill="#dc2626">Mauvaise direction</text>
  <text x="530" y="306" text-anchor="middle" font-size="11" fill="#64748b">l'étalement s'effondre (on perd l'info)</text>

  <text x="360" y="340" text-anchor="middle" font-size="12.5" fill="#1b2a4a">L'ACP choisit la direction de plus grande variance : c'est elle qui résume le mieux les données en une seule coordonnée.</text>
  <text x="360" y="361" text-anchor="middle" font-size="11" fill="#94a3b8">Réduire la dimension, c'est ne garder que ces directions « qui parlent », et jeter celles où tout est tassé.</text>
</svg>
