<svg xmlns="http://www.w3.org/2000/svg" viewBox="0 0 720 380" font-family="-apple-system,Segoe UI,Roboto,Helvetica,Arial,sans-serif">
  <rect width="720" height="380" rx="14" fill="#fbfdff"/>
  <rect x="1" y="1" width="718" height="378" rx="14" fill="none" stroke="#e2e8f0"/>
  <text x="360" y="31" text-anchor="middle" font-size="18.5" font-weight="700" fill="#1b2a4a">Le raisonnement bayésien : mettre à jour sa croyance</text>
  <text x="360" y="50" text-anchor="middle" font-size="12" fill="#64748b">L'axe représente toutes les valeurs possibles d'une quantité inconnue. La hauteur dit à quel point on y croit.</text>

  <polygon points="80.0,300 80.0,297.4 91.2,296.5 102.4,295.3 113.6,293.8 124.8,292.0 136.0,289.8 147.2,287.2 158.4,284.2 169.6,280.7 180.8,276.7 192.0,272.3 203.2,267.5 214.4,262.5 225.6,257.2 236.8,251.8 248.0,246.6 259.2,241.5 270.4,236.9 281.6,232.9 292.8,229.5 304.0,227.0 315.2,225.5 326.4,225.0 337.6,225.5 348.8,227.0 360.0,229.5 371.2,232.9 382.4,236.9 393.6,241.5 404.8,246.6 416.0,251.8 427.2,257.2 438.4,262.5 449.6,267.5 460.8,272.3 472.0,276.7 483.2,280.7 494.4,284.2 505.6,287.2 516.8,289.8 528.0,292.0 539.2,293.8 550.4,295.3 561.6,296.5 572.8,297.4 584.0,298.1 595.2,298.6 606.4,299.0 617.6,299.3 628.8,299.5 640.0,299.7 640.0,300" fill="#cbd5e1" fill-opacity="0.55"/>
  <text x="326" y="215" text-anchor="middle" font-size="12.5" fill="#64748b" font-weight="600">avant (a priori)</text>
  <text x="326" y="233" text-anchor="middle" font-size="10.5" fill="#94a3b8">croyance large, on hésite</text>

  <polyline points="80.0,300.0 91.2,300.0 102.4,300.0 113.6,300.0 124.8,300.0 136.0,300.0 147.2,300.0 158.4,300.0 169.6,300.0 180.8,300.0 192.0,300.0 203.2,300.0 214.4,300.0 225.6,300.0 236.8,300.0 248.0,299.9 259.2,299.8 270.4,299.6 281.6,299.0 292.8,298.0 304.0,296.1 315.2,292.9 326.4,287.7 337.6,279.7 348.8,268.4 360.0,253.4 371.2,235.1 382.4,214.4 393.6,193.1 404.8,173.8 416.0,159.1 427.2,151.0 438.4,151.0 449.6,159.1 460.8,173.8 472.0,193.1 483.2,214.4 494.4,235.1 505.6,253.4 516.8,268.4 528.0,279.7 539.2,287.7 550.4,292.9 561.6,296.1 572.8,298.0 584.0,299.0 595.2,299.6 606.4,299.8 617.6,299.9 628.8,300.0 640.0,300.0" fill="none" stroke="#ea580c" stroke-width="3.5"><animate attributeName="points" values="80.0,297.4 91.2,296.5 102.4,295.3 113.6,293.8 124.8,292.0 136.0,289.8 147.2,287.2 158.4,284.2 169.6,280.7 180.8,276.7 192.0,272.3 203.2,267.5 214.4,262.5 225.6,257.2 236.8,251.8 248.0,246.6 259.2,241.5 270.4,236.9 281.6,232.9 292.8,229.5 304.0,227.0 315.2,225.5 326.4,225.0 337.6,225.5 348.8,227.0 360.0,229.5 371.2,232.9 382.4,236.9 393.6,241.5 404.8,246.6 416.0,251.8 427.2,257.2 438.4,262.5 449.6,267.5 460.8,272.3 472.0,276.7 483.2,280.7 494.4,284.2 505.6,287.2 516.8,289.8 528.0,292.0 539.2,293.8 550.4,295.3 561.6,296.5 572.8,297.4 584.0,298.1 595.2,298.6 606.4,299.0 617.6,299.3 628.8,299.5 640.0,299.7;80.0,297.4 91.2,296.5 102.4,295.3 113.6,293.8 124.8,292.0 136.0,289.8 147.2,287.2 158.4,284.2 169.6,280.7 180.8,276.7 192.0,272.3 203.2,267.5 214.4,262.5 225.6,257.2 236.8,251.8 248.0,246.6 259.2,241.5 270.4,236.9 281.6,232.9 292.8,229.5 304.0,227.0 315.2,225.5 326.4,225.0 337.6,225.5 348.8,227.0 360.0,229.5 371.2,232.9 382.4,236.9 393.6,241.5 404.8,246.6 416.0,251.8 427.2,257.2 438.4,262.5 449.6,267.5 460.8,272.3 472.0,276.7 483.2,280.7 494.4,284.2 505.6,287.2 516.8,289.8 528.0,292.0 539.2,293.8 550.4,295.3 561.6,296.5 572.8,297.4 584.0,298.1 595.2,298.6 606.4,299.0 617.6,299.3 628.8,299.5 640.0,299.7;80.0,300.0 91.2,300.0 102.4,300.0 113.6,300.0 124.8,300.0 136.0,300.0 147.2,300.0 158.4,300.0 169.6,300.0 180.8,300.0 192.0,300.0 203.2,300.0 214.4,300.0 225.6,300.0 236.8,300.0 248.0,299.9 259.2,299.8 270.4,299.6 281.6,299.0 292.8,298.0 304.0,296.1 315.2,292.9 326.4,287.7 337.6,279.7 348.8,268.4 360.0,253.4 371.2,235.1 382.4,214.4 393.6,193.1 404.8,173.8 416.0,159.1 427.2,151.0 438.4,151.0 449.6,159.1 460.8,173.8 472.0,193.1 483.2,214.4 494.4,235.1 505.6,253.4 516.8,268.4 528.0,279.7 539.2,287.7 550.4,292.9 561.6,296.1 572.8,298.0 584.0,299.0 595.2,299.6 606.4,299.8 617.6,299.9 628.8,300.0 640.0,300.0;80.0,300.0 91.2,300.0 102.4,300.0 113.6,300.0 124.8,300.0 136.0,300.0 147.2,300.0 158.4,300.0 169.6,300.0 180.8,300.0 192.0,300.0 203.2,300.0 214.4,300.0 225.6,300.0 236.8,300.0 248.0,299.9 259.2,299.8 270.4,299.6 281.6,299.0 292.8,298.0 304.0,296.1 315.2,292.9 326.4,287.7 337.6,279.7 348.8,268.4 360.0,253.4 371.2,235.1 382.4,214.4 393.6,193.1 404.8,173.8 416.0,159.1 427.2,151.0 438.4,151.0 449.6,159.1 460.8,173.8 472.0,193.1 483.2,214.4 494.4,235.1 505.6,253.4 516.8,268.4 528.0,279.7 539.2,287.7 550.4,292.9 561.6,296.1 572.8,298.0 584.0,299.0 595.2,299.6 606.4,299.8 617.6,299.9 628.8,300.0 640.0,300.0;80.0,297.4 91.2,296.5 102.4,295.3 113.6,293.8 124.8,292.0 136.0,289.8 147.2,287.2 158.4,284.2 169.6,280.7 180.8,276.7 192.0,272.3 203.2,267.5 214.4,262.5 225.6,257.2 236.8,251.8 248.0,246.6 259.2,241.5 270.4,236.9 281.6,232.9 292.8,229.5 304.0,227.0 315.2,225.5 326.4,225.0 337.6,225.5 348.8,227.0 360.0,229.5 371.2,232.9 382.4,236.9 393.6,241.5 404.8,246.6 416.0,251.8 427.2,257.2 438.4,262.5 449.6,267.5 460.8,272.3 472.0,276.7 483.2,280.7 494.4,284.2 505.6,287.2 516.8,289.8 528.0,292.0 539.2,293.8 550.4,295.3 561.6,296.5 572.8,297.4 584.0,298.1 595.2,298.6 606.4,299.0 617.6,299.3 628.8,299.5 640.0,299.7" keyTimes="0;0.15;0.55;0.9;1" dur="6.5s" repeatCount="indefinite" calcMode="spline" keySplines="0 0 1 1;0.4 0 0.2 1;0 0 1 1;0.4 0 0.2 1"/></polyline>
  <text x="433" y="138" text-anchor="middle" font-size="13" fill="#c2410c" font-weight="700">après (a posteriori)</text>
  <text x="433" y="154" text-anchor="middle" font-size="10.5" fill="#ea580c">resserré : on est plus sûr</text>

  <line x1="74" y1="300" x2="646" y2="300" stroke="#475569" stroke-width="2"/>
  <line x1="404.8" y1="304" x2="404.8" y2="313" stroke="#ea580c" stroke-width="2"/><line x1="421.6" y1="304" x2="421.6" y2="313" stroke="#ea580c" stroke-width="2"/><line x1="432.8" y1="304" x2="432.8" y2="313" stroke="#ea580c" stroke-width="2"/><line x1="449.6" y1="304" x2="449.6" y2="313" stroke="#ea580c" stroke-width="2"/><line x1="466.4" y1="304" x2="466.4" y2="313" stroke="#ea580c" stroke-width="2"/>
  <text x="433" y="328" text-anchor="middle" font-size="11.5" fill="#c2410c" font-weight="600">données observées</text>

  <text x="360" y="362" text-anchor="middle" font-size="12.5" fill="#1b2a4a">Apprendre, c'est partir d'une croyance, puis la corriger avec les preuves : on se resserre autour de la vérité.</text>
</svg>
