<svg xmlns="http://www.w3.org/2000/svg" viewBox="0 0 680 410" font-family="-apple-system,Segoe UI,Roboto,Helvetica,Arial,sans-serif">
  <rect width="680" height="410" rx="14" fill="#fbfdff"/>
  <rect x="1" y="1" width="678" height="408" rx="14" fill="none" stroke="#e2e8f0"/>
  <text x="340" y="34" text-anchor="middle" font-size="22" font-weight="700" fill="#1b2a4a">La loi gaussienne (courbe en cloche)</text>
  <text x="340" y="56" text-anchor="middle" font-size="13" fill="#64748b">μ fixe le centre ; σ fixe la largeur. Environ 68 % de la masse est dans [μ−σ, μ+σ].</text>
  <path d="M265 340 L265.0 188.4 L269.0 181.2 L273.0 174.1 L277.0 167.1 L281.0 160.2 L285.0 153.4 L289.0 146.8 L293.0 140.3 L297.0 134.2 L301.0 128.3 L305.0 122.7 L309.0 117.5 L313.0 112.6 L317.0 108.1 L321.0 104.1 L325.0 100.6 L329.0 97.5 L333.0 95.0 L337.0 92.9 L341.0 91.4 L345.0 90.4 L349.0 90.0 L353.0 90.2 L357.0 90.8 L361.0 92.1 L365.0 93.9 L369.0 96.2 L373.0 99.0 L377.0 102.3 L381.0 106.1 L385.0 110.3 L389.0 115.0 L393.0 120.0 L397.0 125.4 L401.0 131.2 L405.0 137.2 L409.0 143.5 L413.0 150.0 L417.0 156.8 L421.0 163.6 L425.0 170.6 L429.0 177.7 L433.0 184.8 L435 340 Z" fill="#0ea5a4" opacity="0.16"/>
  <line x1="60" y1="340" x2="640" y2="340" stroke="#94a3b8" stroke-width="2.5"/>
  <line x1="350" y1="90" x2="350" y2="340" stroke="#cbd5e1" stroke-width="1.5" stroke-dasharray="4 4"/>
  <path d="M80.0 338.4 L86.0 338.0 L92.0 337.5 L98.0 336.9 L104.0 336.2 L110.0 335.4 L116.0 334.3 L122.0 333.2 L128.0 331.7 L134.0 330.1 L140.0 328.2 L146.0 326.0 L152.0 323.4 L158.0 320.5 L164.0 317.2 L170.0 313.4 L176.0 309.2 L182.0 304.5 L188.0 299.3 L194.0 293.6 L200.0 287.3 L206.0 280.5 L212.0 273.1 L218.0 265.1 L224.0 256.7 L230.0 247.7 L236.0 238.3 L242.0 228.5 L248.0 218.3 L254.0 207.9 L260.0 197.3 L266.0 186.6 L272.0 175.9 L278.0 165.4 L284.0 155.1 L290.0 145.1 L296.0 135.7 L302.0 126.8 L308.0 118.7 L314.0 111.4 L320.0 105.1 L326.0 99.8 L332.0 95.5 L338.0 92.5 L344.0 90.6 L350.0 90.0 L356.0 90.6 L362.0 92.5 L368.0 95.5 L374.0 99.8 L380.0 105.1 L386.0 111.4 L392.0 118.7 L398.0 126.8 L404.0 135.7 L410.0 145.1 L416.0 155.1 L422.0 165.4 L428.0 175.9 L434.0 186.6 L440.0 197.3 L446.0 207.9 L452.0 218.3 L458.0 228.5 L464.0 238.3 L470.0 247.7 L476.0 256.7 L482.0 265.1 L488.0 273.1 L494.0 280.5 L500.0 287.3 L506.0 293.6 L512.0 299.3 L518.0 304.5 L524.0 309.2 L530.0 313.4 L536.0 317.2 L542.0 320.5 L548.0 323.4 L554.0 326.0 L560.0 328.2 L566.0 330.1 L572.0 331.7 L578.0 333.2 L584.0 334.3 L590.0 335.4 L596.0 336.2 L602.0 336.9 L608.0 337.5 L614.0 338.0 L620.0 338.4" fill="none" stroke="#6366f1" stroke-width="3.5"/>
  <line x1="265" y1="340" x2="265" y2="346" stroke="#94a3b8" stroke-width="2"/><text x="265" y="362" text-anchor="middle" font-size="13" fill="#475569">μ−σ</text>
  <line x1="350" y1="340" x2="350" y2="346" stroke="#94a3b8" stroke-width="2"/><text x="350" y="362" text-anchor="middle" font-size="13" fill="#475569">μ</text>
  <line x1="435" y1="340" x2="435" y2="346" stroke="#94a3b8" stroke-width="2"/><text x="435" y="362" text-anchor="middle" font-size="13" fill="#475569">μ+σ</text>
  <text x="505" y="250" text-anchor="middle" font-size="13" fill="#0ea5a4" font-weight="600">≈ 68 %</text>
  <path d="M 505 258 L 368 300" stroke="#0ea5a4" stroke-width="1.2" fill="none" opacity="0.6"/>
</svg>
