<svg xmlns="http://www.w3.org/2000/svg" viewBox="0 0 720 380" font-family="-apple-system,Segoe UI,Roboto,Helvetica,Arial,sans-serif">
  <rect width="720" height="380" rx="14" fill="#fbfdff"/>
  <rect x="1" y="1" width="718" height="378" rx="14" fill="none" stroke="#e2e8f0"/>
  <text x="360" y="31" text-anchor="middle" font-size="18.5" font-weight="700" fill="#1b2a4a">Un mélange de gaussiennes : additionner des cloches simples</text>
  <text x="360" y="50" text-anchor="middle" font-size="12" fill="#64748b">Beaucoup de données réelles forment plusieurs groupes. On modélise chaque groupe par une cloche, puis on les additionne.</text>
    <polygon points="80.0,300 80.0,299.8 91.2,299.5 102.4,298.8 113.6,297.4 124.8,294.5 136.0,289.4 147.2,281.3 158.4,269.5 169.6,254.1 180.8,236.3 192.0,218.6 203.2,204.2 214.4,196.1 225.6,196.1 236.8,204.2 248.0,218.6 259.2,236.3 270.4,254.1 281.6,269.5 292.8,281.3 304.0,289.4 315.2,294.5 326.4,297.4 337.6,298.8 348.8,299.5 360.0,299.8 371.2,299.9 382.4,300.0 393.6,300.0 404.8,300.0 416.0,300.0 427.2,300.0 438.4,300.0 449.6,300.0 460.8,300.0 472.0,300.0 483.2,300.0 494.4,300.0 505.6,300.0 516.8,300.0 528.0,300.0 539.2,300.0 550.4,300.0 561.6,300.0 572.8,300.0 584.0,300.0 595.2,300.0 606.4,300.0 617.6,300.0 628.8,300.0 640.0,300.0 640.0,300" fill="#3b82f6" fill-opacity="0.22" opacity="0"><animate attributeName="opacity" values="0;0;1;1;0" keyTimes="0;0.08;0.13;0.93;1" dur="7s" repeatCount="indefinite"/></polygon>
  <polyline points="80.0,299.8 91.2,299.5 102.4,298.8 113.6,297.4 124.8,294.5 136.0,289.4 147.2,281.3 158.4,269.5 169.6,254.1 180.8,236.3 192.0,218.6 203.2,204.2 214.4,196.1 225.6,196.1 236.8,204.2 248.0,218.6 259.2,236.3 270.4,254.1 281.6,269.5 292.8,281.3 304.0,289.4 315.2,294.5 326.4,297.4 337.6,298.8 348.8,299.5 360.0,299.8 371.2,299.9 382.4,300.0 393.6,300.0 404.8,300.0 416.0,300.0 427.2,300.0 438.4,300.0 449.6,300.0 460.8,300.0 472.0,300.0 483.2,300.0 494.4,300.0 505.6,300.0 516.8,300.0 528.0,300.0 539.2,300.0 550.4,300.0 561.6,300.0 572.8,300.0 584.0,300.0 595.2,300.0 606.4,300.0 617.6,300.0 628.8,300.0 640.0,300.0" fill="none" stroke="#3b82f6" stroke-width="2" opacity="0"><animate attributeName="opacity" values="0;0;1;1;0" keyTimes="0;0.08;0.13;0.93;1" dur="7s" repeatCount="indefinite"/></polyline>
  <text x="220" y="189" text-anchor="middle" font-size="11" fill="#3b82f6" font-weight="600" opacity="0">groupe 1<animate attributeName="opacity" values="0;0;1;1;0" keyTimes="0;0.08;0.13;0.93;1" dur="7s" repeatCount="indefinite"/></text>
  <polygon points="80.0,300 80.0,300.0 91.2,300.0 102.4,300.0 113.6,300.0 124.8,300.0 136.0,300.0 147.2,300.0 158.4,300.0 169.6,300.0 180.8,300.0 192.0,300.0 203.2,300.0 214.4,300.0 225.6,300.0 236.8,299.9 248.0,299.7 259.2,299.2 270.4,297.9 281.6,295.1 292.8,289.8 304.0,281.3 315.2,269.2 326.4,254.5 337.6,239.9 348.8,229.1 360.0,225.0 371.2,229.1 382.4,239.9 393.6,254.5 404.8,269.2 416.0,281.3 427.2,289.8 438.4,295.1 449.6,297.9 460.8,299.2 472.0,299.7 483.2,299.9 494.4,300.0 505.6,300.0 516.8,300.0 528.0,300.0 539.2,300.0 550.4,300.0 561.6,300.0 572.8,300.0 584.0,300.0 595.2,300.0 606.4,300.0 617.6,300.0 628.8,300.0 640.0,300.0 640.0,300" fill="#16a34a" fill-opacity="0.22" opacity="0"><animate attributeName="opacity" values="0;0;1;1;0" keyTimes="0;0.2;0.25;0.93;1" dur="7s" repeatCount="indefinite"/></polygon>
  <polyline points="80.0,300.0 91.2,300.0 102.4,300.0 113.6,300.0 124.8,300.0 136.0,300.0 147.2,300.0 158.4,300.0 169.6,300.0 180.8,300.0 192.0,300.0 203.2,300.0 214.4,300.0 225.6,300.0 236.8,299.9 248.0,299.7 259.2,299.2 270.4,297.9 281.6,295.1 292.8,289.8 304.0,281.3 315.2,269.2 326.4,254.5 337.6,239.9 348.8,229.1 360.0,225.0 371.2,229.1 382.4,239.9 393.6,254.5 404.8,269.2 416.0,281.3 427.2,289.8 438.4,295.1 449.6,297.9 460.8,299.2 472.0,299.7 483.2,299.9 494.4,300.0 505.6,300.0 516.8,300.0 528.0,300.0 539.2,300.0 550.4,300.0 561.6,300.0 572.8,300.0 584.0,300.0 595.2,300.0 606.4,300.0 617.6,300.0 628.8,300.0 640.0,300.0" fill="none" stroke="#16a34a" stroke-width="2" opacity="0"><animate attributeName="opacity" values="0;0;1;1;0" keyTimes="0;0.2;0.25;0.93;1" dur="7s" repeatCount="indefinite"/></polyline>
  <text x="360" y="219" text-anchor="middle" font-size="11" fill="#16a34a" font-weight="600" opacity="0">groupe 2<animate attributeName="opacity" values="0;0;1;1;0" keyTimes="0;0.2;0.25;0.93;1" dur="7s" repeatCount="indefinite"/></text>
  <polygon points="80.0,300 80.0,300.0 91.2,300.0 102.4,300.0 113.6,300.0 124.8,300.0 136.0,300.0 147.2,300.0 158.4,300.0 169.6,300.0 180.8,300.0 192.0,300.0 203.2,300.0 214.4,300.0 225.6,300.0 236.8,300.0 248.0,300.0 259.2,300.0 270.4,300.0 281.6,300.0 292.8,299.9 304.0,299.8 315.2,299.5 326.4,299.1 337.6,298.2 348.8,296.6 360.0,294.0 371.2,289.8 382.4,283.8 393.6,275.3 404.8,264.2 416.0,250.7 427.2,235.3 438.4,219.2 449.6,203.9 460.8,191.3 472.0,182.9 483.2,180.0 494.4,182.9 505.6,191.3 516.8,203.9 528.0,219.2 539.2,235.3 550.4,250.7 561.6,264.2 572.8,275.3 584.0,283.8 595.2,289.8 606.4,294.0 617.6,296.6 628.8,298.2 640.0,299.1 640.0,300" fill="#a855f7" fill-opacity="0.22" opacity="0"><animate attributeName="opacity" values="0;0;1;1;0" keyTimes="0;0.32;0.37;0.93;1" dur="7s" repeatCount="indefinite"/></polygon>
  <polyline points="80.0,300.0 91.2,300.0 102.4,300.0 113.6,300.0 124.8,300.0 136.0,300.0 147.2,300.0 158.4,300.0 169.6,300.0 180.8,300.0 192.0,300.0 203.2,300.0 214.4,300.0 225.6,300.0 236.8,300.0 248.0,300.0 259.2,300.0 270.4,300.0 281.6,300.0 292.8,299.9 304.0,299.8 315.2,299.5 326.4,299.1 337.6,298.2 348.8,296.6 360.0,294.0 371.2,289.8 382.4,283.8 393.6,275.3 404.8,264.2 416.0,250.7 427.2,235.3 438.4,219.2 449.6,203.9 460.8,191.3 472.0,182.9 483.2,180.0 494.4,182.9 505.6,191.3 516.8,203.9 528.0,219.2 539.2,235.3 550.4,250.7 561.6,264.2 572.8,275.3 584.0,283.8 595.2,289.8 606.4,294.0 617.6,296.6 628.8,298.2 640.0,299.1" fill="none" stroke="#a855f7" stroke-width="2" opacity="0"><animate attributeName="opacity" values="0;0;1;1;0" keyTimes="0;0.32;0.37;0.93;1" dur="7s" repeatCount="indefinite"/></polyline>
  <text x="483" y="174" text-anchor="middle" font-size="11" fill="#a855f7" font-weight="600" opacity="0">groupe 3<animate attributeName="opacity" values="0;0;1;1;0" keyTimes="0;0.32;0.37;0.93;1" dur="7s" repeatCount="indefinite"/></text>
  <polyline points="80.0,299.8 91.2,299.5 102.4,298.8 113.6,297.4 124.8,294.5 136.0,289.4 147.2,281.3 158.4,269.5 169.6,254.1 180.8,236.3 192.0,218.6 203.2,204.2 214.4,196.1 225.6,196.0 236.8,204.1 248.0,218.3 259.2,235.5 270.4,251.9 281.6,264.5 292.8,271.0 304.0,270.5 315.2,263.2 326.4,250.9 337.6,236.9 348.8,225.1 360.0,218.8 371.2,218.8 382.4,223.7 393.6,229.8 404.8,233.4 416.0,232.0 427.2,225.1 438.4,214.2 449.6,201.8 460.8,190.5 472.0,182.6 483.2,179.9 494.4,182.9 505.6,191.3 516.8,203.9 528.0,219.2 539.2,235.3 550.4,250.7 561.6,264.2 572.8,275.3 584.0,283.8 595.2,289.8 606.4,294.0 617.6,296.6 628.8,298.2 640.0,299.1" fill="none" stroke="#1b2a4a" stroke-width="3.5" opacity="0"><animate attributeName="opacity" values="0;0;1;1;0" keyTimes="0;0.46;0.51;0.93;1" dur="7s" repeatCount="indefinite"/></polyline>
  <text x="360" y="105" text-anchor="middle" font-size="13.5" fill="#1b2a4a" font-weight="700" opacity="0">le mélange = la somme des trois cloches<animate attributeName="opacity" values="0;0;1;1;0" keyTimes="0;0.46;0.51;0.93;1" dur="7s" repeatCount="indefinite"/></text>
  <line x1="74" y1="300" x2="646" y2="300" stroke="#475569" stroke-width="2"/>
  <text x="360" y="362" text-anchor="middle" font-size="12.5" fill="#1b2a4a">Chaque cloche est un groupe (sa hauteur dit sa proportion). Empilées, elles dessinent la forme réelle des données.</text>
</svg>
