<svg xmlns="http://www.w3.org/2000/svg" viewBox="0 0 720 380" font-family="-apple-system,Segoe UI,Roboto,Helvetica,Arial,sans-serif">
  <rect width="720" height="380" rx="14" fill="#fbfdff"/>
  <rect x="1" y="1" width="718" height="378" rx="14" fill="none" stroke="#e2e8f0"/>
  <text x="360" y="32" text-anchor="middle" font-size="19" font-weight="700" fill="#1b2a4a">Le produit matriciel : chaque case = une ligne fois une colonne</text>
  <text x="360" y="53" text-anchor="middle" font-size="12.5" fill="#64748b">On glisse la ligne i de A « par-dessus » la colonne j de B, on multiplie terme à terme, et on additionne.</text>

  <rect x="96" y="150" width="48" height="44" rx="4" fill="#eef2ff" stroke="#cbd5e1"/><text x="120" y="178" text-anchor="middle" font-size="18" fill="#1b2a4a">1</text>
  <rect x="144" y="150" width="48" height="44" rx="4" fill="#eef2ff" stroke="#cbd5e1"/><text x="168" y="178" text-anchor="middle" font-size="18" fill="#1b2a4a">2</text>
  <rect x="96" y="194" width="48" height="44" rx="4" fill="#eef2ff" stroke="#cbd5e1"/><text x="120" y="222" text-anchor="middle" font-size="18" fill="#1b2a4a">3</text>
  <rect x="144" y="194" width="48" height="44" rx="4" fill="#eef2ff" stroke="#cbd5e1"/><text x="168" y="222" text-anchor="middle" font-size="18" fill="#1b2a4a">4</text>
  <path d="M 88 146 L 84 146 L 84 242 L 88 242" fill="none" stroke="#475569" stroke-width="2"/><path d="M 200 146 L 204 146 L 204 242 L 200 242" fill="none" stroke="#475569" stroke-width="2"/>
  <text x="144" y="262" text-anchor="middle" font-size="13" fill="#64748b">A</text>
  <text x="304" y="200" text-anchor="middle" font-size="22" fill="#475569">×</text>
  <rect x="330" y="150" width="48" height="44" rx="4" fill="#ecfeff" stroke="#cbd5e1"/><text x="354" y="178" text-anchor="middle" font-size="18" fill="#1b2a4a">5</text>
  <rect x="378" y="150" width="48" height="44" rx="4" fill="#ecfeff" stroke="#cbd5e1"/><text x="402" y="178" text-anchor="middle" font-size="18" fill="#1b2a4a">6</text>
  <rect x="330" y="194" width="48" height="44" rx="4" fill="#ecfeff" stroke="#cbd5e1"/><text x="354" y="222" text-anchor="middle" font-size="18" fill="#1b2a4a">7</text>
  <rect x="378" y="194" width="48" height="44" rx="4" fill="#ecfeff" stroke="#cbd5e1"/><text x="402" y="222" text-anchor="middle" font-size="18" fill="#1b2a4a">8</text>
  <path d="M 322 146 L 318 146 L 318 242 L 322 242" fill="none" stroke="#475569" stroke-width="2"/><path d="M 434 146 L 438 146 L 438 242 L 434 242" fill="none" stroke="#475569" stroke-width="2"/>
  <text x="378" y="262" text-anchor="middle" font-size="13" fill="#64748b">B</text>
  <text x="534" y="200" text-anchor="middle" font-size="22" fill="#475569">=</text>
  <rect x="560" y="150" width="96" height="88" rx="4" fill="#fff7ed"/>
  <path d="M 552 146 L 548 146 L 548 242 L 552 242" fill="none" stroke="#475569" stroke-width="2"/><path d="M 664 146 L 668 146 L 668 242 L 664 242" fill="none" stroke="#475569" stroke-width="2"/>
  <text x="584" y="178" text-anchor="middle" font-size="18" fill="#ea580c" font-weight="700" opacity="0">19<animate attributeName="opacity" values="0;0;1;1" keyTimes="0;0.000;0.020;1" dur="12.0s" repeatCount="indefinite"/></text><text x="632" y="178" text-anchor="middle" font-size="18" fill="#ea580c" font-weight="700" opacity="0">22<animate attributeName="opacity" values="0;0;1;1" keyTimes="0;0.250;0.270;1" dur="12.0s" repeatCount="indefinite"/></text><text x="584" y="222" text-anchor="middle" font-size="18" fill="#ea580c" font-weight="700" opacity="0">43<animate attributeName="opacity" values="0;0;1;1" keyTimes="0;0.500;0.520;1" dur="12.0s" repeatCount="indefinite"/></text><text x="632" y="222" text-anchor="middle" font-size="18" fill="#ea580c" font-weight="700" opacity="0">50<animate attributeName="opacity" values="0;0;1;1" keyTimes="0;0.750;0.770;1" dur="12.0s" repeatCount="indefinite"/></text>
  <text x="608" y="262" text-anchor="middle" font-size="13" fill="#ea580c">C = A×B</text>

  <rect x="94" width="100" height="44" rx="5" fill="none" stroke="#f59e0b" stroke-width="3" y="150"><animate attributeName="y" values="150;150;194;194;150" keyTimes="0;0.25;0.5;0.75;1" calcMode="discrete" dur="12.0s" repeatCount="indefinite"/></rect>
  <rect y="148" width="48" height="92" rx="5" fill="none" stroke="#f59e0b" stroke-width="3" x="330"><animate attributeName="x" values="330;378;330;378;330" keyTimes="0;0.25;0.5;0.75;1" calcMode="discrete" dur="12.0s" repeatCount="indefinite"/></rect>
  <rect width="48" height="44" rx="5" fill="none" stroke="#ea580c" stroke-width="3" x="560" y="150"><animate attributeName="x" values="560;608;560;608;560" keyTimes="0;0.25;0.5;0.75;1" calcMode="discrete" dur="12.0s" repeatCount="indefinite"/><animate attributeName="y" values="150;150;194;194;150" keyTimes="0;0.25;0.5;0.75;1" calcMode="discrete" dur="12.0s" repeatCount="indefinite"/></rect>
  <text x="360" y="320" text-anchor="middle" font-size="16" fill="#1b2a4a" opacity="0">c<tspan font-size="11" dy="3">11</tspan><tspan dy="-3"> = 1×5 + 2×7 = </tspan><tspan font-weight="700" fill="#ea580c">19</tspan><animate attributeName="opacity" values="0;0;1;1;0;0" keyTimes="0;0.000;0.020;0.230;0.250;1" dur="12.0s" repeatCount="indefinite"/></text><text x="360" y="320" text-anchor="middle" font-size="16" fill="#1b2a4a" opacity="0">c<tspan font-size="11" dy="3">12</tspan><tspan dy="-3"> = 1×6 + 2×8 = </tspan><tspan font-weight="700" fill="#ea580c">22</tspan><animate attributeName="opacity" values="0;0;1;1;0;0" keyTimes="0;0.250;0.270;0.480;0.500;1" dur="12.0s" repeatCount="indefinite"/></text><text x="360" y="320" text-anchor="middle" font-size="16" fill="#1b2a4a" opacity="0">c<tspan font-size="11" dy="3">21</tspan><tspan dy="-3"> = 3×5 + 4×7 = </tspan><tspan font-weight="700" fill="#ea580c">43</tspan><animate attributeName="opacity" values="0;0;1;1;0;0" keyTimes="0;0.500;0.520;0.730;0.750;1" dur="12.0s" repeatCount="indefinite"/></text><text x="360" y="320" text-anchor="middle" font-size="16" fill="#1b2a4a" opacity="0">c<tspan font-size="11" dy="3">22</tspan><tspan dy="-3"> = 3×6 + 4×8 = </tspan><tspan font-weight="700" fill="#ea580c">50</tspan><animate attributeName="opacity" values="0;0;1;1;0;0" keyTimes="0;0.750;0.770;0.980;1.000;1" dur="12.0s" repeatCount="indefinite"/></text>
  <text x="360" y="358" text-anchor="middle" font-size="12.5" fill="#1b2a4a">Les « p » du milieu doivent coïncider : (m×p)·(p×n) = (m×n). Ici (2×2)·(2×2) = (2×2).</text>
</svg>
